# xmcd
#
# Track frame offsets:
#	193
#	4020
#	7522
#	9673
#	11961
#	14213
#	17723
#	20335
#	22550
#	25716
#	29703
#	36524
#	41499
#	44624
#	46012
#	48055
#	54232
#	59585
#	66193
#	69859
#	72907
#	76509
#	81913
#	85317
#	89220
#	97426
#	105261
#	114131
#	117636
#	119689
#	121960
#	124479
#	129881
#	133372
#	135490
#	148027
#
# Disc length: 2059 seconds
#
# Revision: 1
# Processed by: cddbd v1.5.1PL0 Copyright (c) Steve Scherf et al.
# Submitted via: CDex 1.50Beta5
#
DISCID=e7080924
DTITLE=SS - LIVE!
DYEAR=1900
DGENRE=
TTITLE0=東京・明大前 キッド・アイラック・ホール May 27, '79
TTITLE1=東京・明大前 キッド・アイラック・ホール May 27, '79
TTITLE2=東京・明大前 キッド・アイラック・ホール May 27, '79
TTITLE3=東京・明大前 キッド・アイラック・ホール May 27, '79
TTITLE4=東京・明大前 キッド・アイラック・ホール May 27, '79
TTITLE5=東京・明大前 キッド・アイラック・ホール May 27, '79
TTITLE6=東京・明大前 キッド・アイラック・ホール May 27, '79
TTITLE7=東京・明大前 キッド・アイラック・ホール May 27, '79
TTITLE8=東京・明大前 キッド・アイラック・ホール May 27, '79
TTITLE9=東京・明大前 キッド・アイラック・ホール May 27, '79
TTITLE10=東京・明大前 キッド・アイラック・ホール May 27, '79
TTITLE11=東京・明大前 キッド・アイラック・ホール May 27, '79
TTITLE12=東京・明大前 キッド・アイラック・ホール May 27, '79
TTITLE13=東京・明大前 キッド・アイラック・ホール May 27, '79
TTITLE14=東京・明大前 キッド・アイラック・ホール May 27, '79
TTITLE15=東京・明大前 キッド・アイラック・ホール May 27, '79
TTITLE16=東京・明大前 キッド・アイラック・ホール May 27, '79
TTITLE17=東京・明大前 キッド・アイラック・ホール May 27, '79
TTITLE18=京都 サーカス&サーカス Jun. '79
TTITLE19=京都 サーカス&サーカス Jun. '79
TTITLE20=京都 サーカス&サーカス Jun. '79
TTITLE21=京都 サーカス&サーカス Jun. '79
TTITLE22=京都 サーカス&サーカス Jun. '79
TTITLE23=京都 サーカス&サーカス Jun. '79
TTITLE24=京都 サーカス&サーカス Jun. '79
TTITLE25=京都 サーカス&サーカス Jun. '79
TTITLE26=京都 サーカス&サーカス Jun. '79
TTITLE27=京都 サーカス&サーカス Jun. '79
TTITLE28=京都 サーカス&サーカス Jun. '79
TTITLE29=京都 サーカス&サーカス Jun. '79
TTITLE30=京都 サーカス&サーカス Jun. '79
TTITLE31=京都 サーカス&サーカス Jun. '79
TTITLE32=京都 サーカス&サーカス Jun. '79
TTITLE33=京都 サーカス&サーカス Jun. '79
TTITLE34=京都 サーカス&サーカス Jun. '79
TTITLE35=京都 サーカス&サーカ Jun. '79
EXTD=
EXTT0=
EXTT1=
EXTT2=
EXTT3=
EXTT4=
EXTT5=
EXTT6=
EXTT7=
EXTT8=
EXTT9=
EXTT10=
EXTT11=
EXTT12=
EXTT13=
EXTT14=
EXTT15=
EXTT16=
EXTT17=
EXTT18=
EXTT19=
EXTT20=
EXTT21=
EXTT22=
EXTT23=
EXTT24=
EXTT25=
EXTT26=
EXTT27=
EXTT28=
EXTT29=
EXTT30=
EXTT31=
EXTT32=
EXTT33=
EXTT34=
EXTT35=
PLAYORDER=
